<svg xmlns="http://www.w3.org/2000/svg" xmlns:xlink="http://www.w3.org/1999/xlink" width="1080" zoomAndPan="magnify" viewBox="0 0 810 809.999993" height="1080" preserveAspectRatio="xMidYMid meet" version="1.0"><path fill="#6d6d6d" d="M 520.628906 592.308594 L 719.019531 790.636719 C 738.664062 810.273438 770.5625 810.265625 790.207031 790.621094 C 809.84375 770.972656 809.835938 739.074219 790.195312 719.433594 L 591.933594 521.246094 C 631.816406 466.996094 655.394531 400.003906 655.394531 327.546875 C 655.394531 146.765625 508.625 0 327.847656 0 C 147.070312 0 0.300781 146.765625 0.300781 327.546875 C 0.300781 508.324219 147.070312 655.089844 327.847656 655.089844 C 399.890625 655.089844 466.527344 631.789062 520.628906 592.308594 Z M 327.847656 100.671875 C 453.0625 100.671875 554.726562 202.332031 554.726562 327.546875 C 554.726562 452.761719 453.0625 554.425781 327.847656 554.425781 C 202.632812 554.425781 100.976562 452.761719 100.976562 327.546875 C 100.976562 202.332031 202.632812 100.671875 327.847656 100.671875 Z M 327.847656 100.671875 " fill-opacity="1" fill-rule="evenodd"/></svg>